<?xml version="1.0" encoding="UTF-8"?>
<svg width="144px" height="34px" viewBox="0 0 144 34" version="1.1" xmlns="http://www.w3.org/2000/svg" xmlns:xlink="http://www.w3.org/1999/xlink">
    <title>logo-text</title>
    <defs>
        <polygon id="path-1" points="0 0 20 0 20 20 0 20"></polygon>
        <polygon id="path-3" points="0 0 32 0 32 26 0 26"></polygon>
    </defs>
    <g id="logo-text" stroke="none" stroke-width="1" fill="none" fill-rule="evenodd">
        <g id="Group-15" transform="translate(1.000000, 0.000000)">
            <g id="Group-3" transform="translate(123.000000, 7.000000)">
                <mask id="mask-2" fill="white">
                    <use xlink:href="#path-1"></use>
                </mask>
                <g id="Clip-2"></g>
                <path d="M7.32266971,13.5147774 C7.14113295,13.6107382 7.01103685,13.5687405 6.88164864,13.3963913 C6.26923737,12.5805258 5.86345394,11.667907 5.63142038,10.6794546 C5.20841141,8.87822709 5.25631258,7.08896496 5.85897058,5.33314255 C6.21716747,4.2897761 6.77554245,3.37065956 7.64783131,2.67151609 C8.1578332,2.26279093 8.72415239,1.97134247 9.37730718,1.90176886 C10.0652277,1.82847092 10.6652901,2.05700201 11.1609767,2.53870814 C11.7181718,3.08024124 11.999837,3.76963807 12.1510914,4.51862415 C12.2306907,4.91324441 12.2645125,5.31420394 12.2641226,5.7264157 C12.0733798,9.00532967 10.6644248,11.5571281 7.81371564,13.2460711 C7.65325854,13.3411603 7.48761017,13.4276123 7.32266971,13.5147774 M19.9331822,12.2469211 C19.6793611,11.6543568 19.0166103,11.5671125 18.6281311,12.0781378 C18.5637123,12.1630049 18.5120357,12.2579356 18.4572128,12.3498552 C17.4982457,13.9559121 16.1119435,14.9955542 14.3255211,15.496199 C13.2624141,15.7941452 12.181531,15.861817 11.083973,15.7337635 C10.2680801,15.6385951 9.49411052,15.4133921 8.76104179,15.0467439 C8.62677695,14.9796268 8.47670237,14.9173433 8.37625936,14.788022 C8.46278035,14.7058491 8.55677361,14.6993513 8.64856451,14.6837408 C10.4628309,14.3749386 12.1802725,13.7913285 13.7773713,12.8606428 C14.8023304,12.2634033 15.7154414,11.5286013 16.4562184,10.5972817 C17.5038302,9.28021676 17.9897635,7.77630153 17.9365924,6.07816657 C17.8682409,3.89475964 16.902824,2.26453423 15.052848,1.15785421 C13.8723084,0.451658284 12.5656055,0.13524891 11.2132039,0.0372277745 C9.45588397,-0.090033296 7.73104877,0.100541346 6.07189086,0.739620134 C3.86662822,1.58908382 2.18741317,3.0440281 1.09772067,5.16142727 C0.522120144,6.27983496 0.200969972,7.47637429 0.0728402561,8.73107652 C-0.0996511295,10.4205742 0.0221861511,12.0767907 0.567740301,13.6904547 C1.25904299,15.7353483 2.5021136,17.3418014 4.33950474,18.4702727 C5.94840182,19.458329 7.72200339,19.8781479 9.58015957,19.9806857 C10.2838898,20.0195138 10.9887212,19.9991489 11.6940246,19.9254547 C12.9776814,19.7914582 14.211628,19.4895499 15.3629864,18.8964309 C17.3005845,17.8983111 18.589354,16.3083401 19.4397766,14.3217679 C19.6599332,13.8074144 19.8019849,13.2669115 20.0000393,12.7456641 L20.0000393,12.342882 C19.9773866,12.3110271 19.9482054,12.2820249 19.9331822,12.2469211" id="Fill-1" fill="#FFBD5A" mask="url(#mask-2)"></path>
            </g>
            <path d="M101.48026,25.7710548 C101.072582,25.7156415 100.685694,25.5895258 100.339767,25.359217 C99.4491356,24.7663357 99.0232186,23.8954983 99.0191998,22.8047876 C99.0106984,20.4342331 99.0165721,18.0635168 99.0164948,15.6928814 C99.0164948,14.9666038 99.0164948,14.2403262 99.0164948,13.5140486 C99.0164948,11.8285151 99.0166494,10.1430625 99.0164175,8.45752898 C99.0162629,7.40014712 98.6155408,6.76851698 97.376123,7.07939744 C95.9657511,7.43315239 94.547187,7.75090894 93.1324871,8.08589619 C92.4570945,8.2458261 91.7813154,8.40454259 91.1080095,8.57409904 C90.8533558,8.63824898 90.764169,8.76792407 90.7684197,9.00001256 C90.7721294,9.20750888 90.9032045,9.39550945 91.098658,9.46095371 C91.1600222,9.48150111 91.2285739,9.47721366 91.2922567,9.4918557 C91.4707075,9.53303138 91.651786,9.5668456 91.8258315,9.62355317 C93.0189556,10.0123358 93.7559443,11.1013477 93.7592676,12.5005929 C93.7648321,14.8712283 93.7645229,17.2419446 93.7587266,19.61258 C93.7567944,20.4254155 93.5419425,21.1838085 93.12159,21.8663218 C92.3700717,23.0867076 91.312969,23.8210747 89.9231549,23.9937861 C88.9992913,24.1085764 88.1820809,23.8635447 87.5304147,23.1439814 C87.0497027,22.6130659 86.7887117,21.9544976 86.6161345,21.2588793 C86.3751602,20.2870037 86.2854325,19.2944999 86.2859735,18.2913178 C86.287751,15.0026022 86.285587,11.7138056 86.2885239,8.42500909 C86.2887557,8.16177594 86.2703619,7.90541888 86.1758425,7.65982089 C86.0119212,7.23382648 85.7138334,7.0084523 85.2707592,7.00618724 C85.0746874,7.00521649 84.882248,7.01629914 84.6872583,7.06410824 C83.8222858,7.27621559 82.9536809,7.4721439 82.0870855,7.67705158 C80.8636657,7.9664139 79.6400914,8.25545264 78.41814,8.55185285 C78.1236073,8.62328336 77.9894407,8.7878243 78.000647,9.01044804 C78.0124716,9.24763293 78.1906133,9.42794845 78.4660566,9.48255274 C78.5943495,9.50795385 78.7238017,9.52898662 78.8503171,9.56215367 C79.8886396,9.83493247 80.5759341,10.4983544 80.8740219,11.5808947 C80.9904902,12.0037342 81.019472,12.4426719 81.0200903,12.8803961 C81.0236454,15.4565863 81.0268914,18.0328575 81.0189311,20.6090477 C81.0163807,21.4386286 81.1211017,22.2492799 81.3665585,23.0341257 C81.9185272,24.7988556 82.9982743,26.0393843 84.7109074,26.620374 C85.8752043,27.0153856 87.0670145,27.0720931 88.2783779,26.9275333 C89.9548417,26.7274794 91.4802908,26.1467323 92.8047992,25.0340181 C93.0120773,24.8598506 93.2153365,24.6635179 93.5052321,24.811718 C93.7775841,24.9510196 93.7560216,25.2240411 93.7651412,25.4894584 C93.7871674,26.1302297 94.116401,26.5059073 94.7262561,26.5804927 C95.0369413,26.6185135 95.3486313,26.6503053 95.6641855,26.6490919 C97.4843992,26.642054 99.3045356,26.6456943 101.124749,26.6456134 C101.229548,26.6456134 101.3345,26.6500626 101.43899,26.6440764 C101.806325,26.6228818 101.993509,26.4753289 102,26.2069184 C102.00572,25.9594598 101.843731,25.8204818 101.48026,25.7710548" id="Fill-4" fill="#FFBD5A"></path>
            <path d="M55.7484101,26.5771578 C55.8966383,26.520879 55.9838587,26.4107472 55.9980088,26.2427193 C56.013628,26.0574682 55.9369236,25.9259084 55.7832055,25.8402773 C55.6642054,25.7739718 55.5302819,25.7792277 55.4023897,25.7532715 C54.3158468,25.5334122 53.540529,24.9215418 53.1740952,23.8013831 C53.0368469,23.3816369 53.0018196,22.9487105 53.0025928,22.5073746 C53.0063816,20.1928275 53.0043712,17.8782803 53.0043712,15.5637331 C53.0043712,13.1670318 53.003134,10.7702496 53.0064589,8.37354829 C53.0066909,8.15223347 52.9894479,7.93601284 52.9301411,7.72480556 C52.8046459,7.27764772 52.481745,7.01865197 52.0354366,7.00814012 C51.8261232,7.00320763 51.620676,7.02043089 51.4128317,7.0704026 C50.0751437,7.39214601 48.7345947,7.70095175 47.3957468,8.01784353 C46.6436259,8.19581721 45.8921236,8.37670185 45.1422451,8.56486393 C44.8198854,8.64580515 44.7131797,8.81593537 44.7645995,9.11827229 C44.8035703,9.34799659 44.9163072,9.44058171 45.2167845,9.48359943 C46.1833994,9.62170894 46.9479693,10.0818044 47.4174746,11.0032892 C47.6758881,11.5106071 47.7576958,12.0594065 47.7568453,12.6293912 C47.7534431,14.9166076 47.7561494,17.2037431 47.7543709,19.4909595 C47.754139,19.7097676 47.7578505,19.9316485 47.726612,20.1468988 C47.4579918,21.9969031 46.126335,23.495084 44.3777525,23.9104637 C43.4862955,24.122237 42.6335774,24.0422661 41.8693168,23.4642762 C41.3514073,23.0725886 41.0432751,22.5181291 40.8199662,21.9093313 C40.4113141,20.7950755 40.2850457,19.6270475 40.2813342,18.4460818 C40.2708956,15.1455233 40.2777773,11.844803 40.2773907,8.54416367 C40.2773907,8.39360167 40.2800197,8.24247364 40.2696584,8.09247765 C40.2268988,7.47106573 39.8477841,6.94280494 39.1466963,7.00498656 C38.9901946,7.01889455 38.8359352,7.02827435 38.6809025,7.06506582 C37.1004203,7.44066223 35.5184688,7.80954723 33.937368,8.18231352 C33.4145871,8.30562559 32.893662,8.43758971 32.3707265,8.56017402 C32.1724703,8.60666874 32.037387,8.70596527 32.0082362,8.93083795 C31.96509,9.26422525 32.0894254,9.43378944 32.4294147,9.48173964 C33.0814796,9.57375874 33.6736965,9.80752606 34.1517073,10.2950332 C34.7719152,10.9274422 34.9959973,11.7291727 34.998317,12.6061034 C35.005276,15.1945247 35.003343,17.7830268 34.9992448,20.3715289 C34.998085,21.1276542 35.0631136,21.8740762 35.2447454,22.6065903 C35.7928882,24.8173128 37.0987192,26.2351993 39.2425769,26.7731634 C40.3529353,27.0518082 41.4748921,27.054234 42.5959211,26.8861253 C43.704965,26.7197147 44.7608107,26.3682955 45.7401839,25.7845645 C46.1969309,25.5123885 46.6269241,25.2031784 47.0213488,24.8395494 C47.1579786,24.7136498 47.2927526,24.5648667 47.503999,24.6534897 C47.7451695,24.754646 47.7608661,24.9733733 47.7558401,25.2012378 C47.7537523,25.2970573 47.7522059,25.3931195 47.7566133,25.4887773 C47.7849135,26.0973324 48.0781224,26.4602337 48.6476836,26.563735 C48.8914831,26.6080465 49.1414684,26.6348113 49.38867,26.6354582 C51.3667472,26.6411184 53.3448244,26.6382074 55.3228243,26.6395012 C55.4682689,26.639582 55.6113938,26.629151 55.7484101,26.5771578" id="Fill-6" fill="#FFBD5A"></path>
            <path d="M121.690116,18.8849429 C121.147241,18.3898365 120.968092,18.4002223 120.616719,19.046675 C119.933405,20.3037458 118.987466,21.2948307 117.708799,21.9465952 C116.027147,22.8036961 114.253599,23.0034036 112.425764,22.6176249 C110.318703,22.1729409 108.842241,20.9235603 108.00708,18.9201435 C107.669711,18.1108487 107.481435,17.2660362 107.400319,16.3896702 C107.266174,14.938283 107.387652,13.5224135 107.922029,12.1607719 C108.280169,11.2479368 108.810849,10.4527539 109.594634,9.84499001 C110.708786,8.98115027 111.961252,8.73466736 113.326149,8.983053 C113.854075,9.0791409 114.36005,9.2461848 114.82228,9.52430061 C115.176801,9.73764429 115.20245,10.0099726 114.912366,10.3074329 C114.753595,10.4702749 114.586484,10.6251889 114.433456,10.7932634 C112.793267,12.594753 113.406558,15.3147066 115.652249,16.2408608 C116.377891,16.5401444 117.132959,16.5976228 117.890151,16.5089872 C119.14726,16.3617634 120.143946,15.7586771 120.697521,14.5801732 C121.363289,13.1627181 121.228594,11.7577893 120.453148,10.4221517 C119.706263,9.1355093 118.532238,8.35982941 117.194878,7.81755115 C115.75689,7.23444347 114.251239,6.99628501 112.617816,7.002786 C111.384074,6.97178735 110.105251,7.19995647 108.870329,7.66295428 C106.949654,8.3829793 105.359819,9.56671565 104.117265,11.2068695 C102.749851,13.0116889 102.037111,15.056173 102.001156,17.3304119 C101.984476,18.3841284 102.148833,19.4146949 102.461812,20.419416 C103.297525,23.1022663 104.998532,25.0039664 107.564834,26.1091358 C108.649875,26.5764147 109.790069,26.8205985 110.965431,26.9333353 C112.396653,27.070649 113.811196,27.0014372 115.21016,26.673454 C117.597313,26.1137341 119.455046,24.8044175 120.733319,22.6827934 C121.262189,21.8050003 121.628669,20.8600567 121.933386,19.8830045 C122.06108,19.4737588 122.018279,19.1842266 121.690116,18.8849429" id="Fill-8" fill="#FFBD5A"></path>
            <g id="Group-12">
                <mask id="mask-4" fill="white">
                    <use xlink:href="#path-3"></use>
                </mask>
                <g id="Clip-11"></g>
                <path d="M26.2454052,10.3448578 C25.4237345,12.455228 23.8339351,13.626331 21.6028693,13.9866587 C20.6535635,14.1399164 19.6961452,14.0331328 18.7429764,14.065466 C18.5656624,14.0715046 18.4931916,13.9976657 18.459274,13.8247635 C18.2440249,12.7274229 17.8120586,11.7246359 17.0808606,10.8624943 C16.9546934,10.7137465 16.9685231,10.5535329 16.9684458,10.3876629 C16.9677505,8.54948757 16.9679823,6.71123576 16.9679823,4.87306039 C16.9679823,3.87631194 16.9666688,2.87956348 16.9687549,1.88281503 C16.9695275,1.54327847 16.9733906,1.5396859 17.3143433,1.53815714 C17.9425525,1.53540538 18.5707616,1.53739277 19.1989708,1.53739277 C19.5916111,1.53754564 19.9845605,1.5287553 20.3770464,1.532195 C20.5079265,1.53334157 20.6386521,1.53586401 20.7693777,1.54052671 C22.4114829,1.59915448 23.8742653,2.10937656 25.0432241,3.29095153 C25.9328845,4.19024184 26.4163838,5.29820724 26.6126267,6.52740294 C26.8201497,7.82745645 26.7258913,9.11084652 26.2454052,10.3448578 M16.6944011,17.9089097 C16.1236741,19.4871967 14.9659954,20.5016787 13.3837675,21.0453041 C12.1567857,21.4669348 10.8904007,21.5641636 9.59620178,21.4660175 C8.51516595,21.3839998 7.47623736,21.160878 6.48907364,20.7219723 C4.49998935,19.8376638 3.16739172,18.3380313 2.36016885,16.3588283 C1.93137033,15.3075032 1.71812999,14.2102391 1.62387158,13.0805654 C1.47545321,11.3026994 1.65060388,9.56549834 2.25401224,7.88539627 C3.42745222,4.61806401 5.72480789,2.57258942 9.14723815,1.78619769 C9.8738778,1.61918118 10.6138063,1.53043693 11.3624654,1.53777496 C11.6962329,1.54098534 11.7030318,1.54243766 11.7033409,1.84818872 C11.7054269,3.99716004 11.7054269,6.1462078 11.7033409,8.29517913 C11.7030318,8.59619105 11.6962329,8.60498139 11.3633925,8.60628083 C10.3353577,8.61033203 9.33104205,8.7523534 8.36311632,9.10327918 C7.34752055,9.47155633 6.45167932,10.017322 5.82153865,10.9091978 C5.02930442,12.0304634 4.82981653,13.2582832 5.26672745,14.5608592 C5.62699547,15.6349626 6.61145506,16.3404068 7.75538134,16.3855815 C8.10776873,16.3995696 8.45791556,16.3998753 8.80945308,16.3292469 C10.1592026,16.0578163 10.9447152,15.1164853 11.0652423,13.7516125 C11.1378677,12.929983 10.9770103,12.1549041 10.4459182,11.4846977 C10.2069499,11.1830743 9.91274008,10.9535317 9.57024209,10.7807824 C9.45465964,10.7225368 9.33722293,10.6678838 9.17736993,10.5906816 C9.51461417,10.356935 9.8443641,10.2727005 10.177359,10.2196527 C11.5998884,9.99324408 12.9912044,10.0837464 14.3210206,10.6766741 C15.5627593,11.2303893 16.3878295,12.1669812 16.7767613,13.4478489 C17.2287381,14.9361686 17.2254159,16.440158 16.6944011,17.9089097 M27.9038897,0.793653314 C26.7068851,0.217389004 25.4213394,0.00397476378 24.0990175,0.00259888401 C20.1070192,-0.00145231753 16.1150209,0.00267532177 12.1230226,-4.55210334e-06 C11.2059346,-0.00061150212 10.2943321,0.0603093966 9.39339167,0.229160419 C7.45290454,0.592851305 5.69884819,1.36777737 4.20268904,2.65086169 C1.7828747,4.72591769 0.519502925,7.39588882 0.148109326,10.5122565 C0.121299761,10.7369071 0.130262036,10.975928 0,11.1809341 L0,13.2011078 C0.13057108,13.3920493 0.12276772,13.6197574 0.14532793,13.8310314 C0.25565663,14.8659223 0.490530052,15.8708496 0.875907891,16.8373287 C2.07592565,19.8470657 4.24271023,21.7995919 7.41072004,22.6454522 C8.63484323,22.9723766 9.88523516,23.033909 11.1449757,22.9977539 C11.2941667,22.9934734 11.449384,22.9628983 11.6100869,23.0349791 C11.4884781,23.5559789 11.2885266,24.0064267 10.9148152,24.3779906 C10.3893631,24.9004428 9.75141912,25.1479482 9.01767146,25.1873137 C8.71813058,25.2034421 8.71820785,25.2082576 8.71055901,25.4967338 C8.70916831,25.5484821 8.70970914,25.6003069 8.71040448,25.6520553 C8.71511741,25.9935028 8.71519467,25.9988534 9.05668826,25.9990063 C12.5774718,26.0003058 16.0982553,26.0003822 19.6190388,25.9989299 C19.9576737,25.9988534 19.9576737,25.9932735 19.9622321,25.6489213 C19.9680267,25.2110858 19.9680267,25.2110858 19.534438,25.1766124 C18.2521373,25.0747209 17.2475126,24.1406514 17.0335769,22.8753006 C16.9201577,22.2047885 16.999582,21.5319833 16.9647373,20.8613184 C16.9532254,20.6395724 17.022065,20.4621604 17.1588942,20.2939208 C17.4638433,19.91907 17.7024253,19.5029429 17.9066261,19.0674769 C18.3759866,18.0663715 18.5751655,17.0055682 18.6169637,15.9099857 C18.6284756,15.6097382 18.6318751,15.609356 18.9220673,15.60133 C19.0005645,15.5991133 19.0791389,15.6008714 19.1576361,15.6008714 C20.8199064,15.6008714 22.4820994,15.6001835 24.1443697,15.6011771 C24.8661419,15.6015593 25.581965,15.5307015 26.2821042,15.3634557 C28.9659966,14.722525 30.7812437,13.1284919 31.5975061,10.5017081 C32.1492268,8.72613525 32.120563,6.92915983 31.5923296,5.14945935 C31.0054551,3.17186149 29.7848859,1.69905864 27.9038897,0.793653314" id="Fill-10" fill="#FFBD5A" mask="url(#mask-4)"></path>
            </g>
            <path d="M71.6653516,18.1735097 C71.5920051,19.6865007 71.3876494,21.1796766 70.787925,22.5880317 C70.4566955,23.365987 69.997968,24.053404 69.3037515,24.5626424 C67.9773509,25.5357718 65.7914702,25.3620574 64.7195194,23.9097646 C64.1623984,23.1550705 63.8582447,22.3056088 63.6626281,21.4071187 C63.4338496,20.3558257 63.3484868,19.2883204 63.3509837,18.2131398 C63.352076,17.7624066 63.3511397,17.3116734 63.3511397,16.8610186 C63.3511397,16.251217 63.3367825,15.6410238 63.3537927,15.0316921 C63.4099729,13.0183912 64.1014584,11.2841454 65.6276111,9.9300663 C66.309187,9.32527717 67.104528,8.93970648 68.0123856,8.86906159 C68.9573845,8.79551886 69.6935802,9.21813504 70.250233,9.97549205 C70.7210549,10.6162302 70.9939193,11.3460968 71.192423,12.1052552 C71.5152254,13.3398176 71.6362471,14.6006173 71.6908668,15.8744182 C71.7237947,16.6433666 71.702415,17.4087906 71.6653516,18.1735097 M75.1022577,9.99131275 C74.3427316,8.93798343 73.37924,8.13676707 72.184785,7.61484079 C71.0326993,7.11139809 69.8277886,6.95131146 68.5850342,7.01232295 C67.7333569,7.05414597 66.9125787,7.23138474 66.1343259,7.59228455 C65.3427303,7.95944997 64.6593597,8.47103798 64.0855407,9.12814505 C63.9510202,9.28227934 63.80105,9.37469726 63.6006737,9.30789007 C63.3905439,9.23771511 63.3525442,9.05499392 63.3509056,8.85794012 C63.3495011,8.6855572 63.3543389,8.5120778 63.3367045,8.34110465 C63.2866104,7.85418753 62.9322066,7.45561568 62.5004768,7.41018992 C62.2646757,7.38536239 62.0270019,7.38794696 61.7908887,7.44222291 C60.5435307,7.7288751 59.2949242,8.00996655 58.047176,8.29505233 C57.1595277,8.49782351 56.2718794,8.70035973 55.3859478,8.91025806 C55.0926399,8.97972814 55.0121929,9.08264097 55.0044681,9.3331092 C54.9952608,9.63033462 55.1141757,9.75243592 55.4693598,9.79895816 C56.1013099,9.88166437 56.6695109,10.1071484 57.1400206,10.5487964 C57.7803197,11.1498262 58.0243137,11.9154851 58.0247039,12.7705075 C58.0274348,18.5547728 58.0261084,24.339038 58.0261084,30.1233033 C58.0261084,30.2028767 58.0286833,30.2826067 58.02525,30.3620234 C57.9649343,31.7620766 57.0784564,32.892943 55.6981384,33.1373022 C55.5683776,33.1602501 55.4369782,33.1774022 55.3093241,33.2094352 C55.0665005,33.270525 54.9491461,33.496479 55.020854,33.7331628 C55.0590098,33.8591802 55.1804996,33.9052325 55.2496326,34 L66.1978408,34 C66.2327975,33.9451758 66.2728259,33.8928579 66.3020084,33.8350575 C66.4654774,33.5109682 66.3430512,33.2662174 65.9850581,33.1977655 C65.868484,33.1754442 65.7514418,33.1553159 65.6349457,33.1324464 C64.8405411,32.9760408 64.22209,32.5567141 63.7965244,31.8662426 C63.460067,31.3203503 63.3500473,30.7124283 63.3507496,30.0783474 C63.3521541,28.7118937 63.3510617,27.3454399 63.3513738,25.9789862 C63.3513738,25.8728622 63.3417763,25.7648585 63.3578501,25.6610059 C63.4070079,25.3437304 63.6683242,25.2202977 63.9447779,25.3810109 C64.0126624,25.4204843 64.0723539,25.4752302 64.1325136,25.5269216 C64.6952527,26.0103926 65.3431985,26.3294694 66.0564538,26.5138353 C67.3060747,26.8369064 68.5665415,26.8304058 69.8267742,26.5919206 C71.8820358,26.2029038 73.5724377,25.1938255 74.8651301,23.5382916 C76.2619901,21.7493783 76.8402568,19.6668423 76.9732168,17.4394138 C77.0341567,16.4198405 76.9931139,15.3997973 76.8294109,14.3872729 C76.571996,12.7951001 76.0515482,11.3077198 75.1022577,9.99131275" id="Fill-13" fill="#FFBD5A"></path>
        </g>
    </g>
</svg>