<?xml version="1.0" encoding="UTF-8"?>
<svg width="96px" height="59px" viewBox="0 0 96 59" version="1.1" xmlns="http://www.w3.org/2000/svg" xmlns:xlink="http://www.w3.org/1999/xlink">
    <title>logo-shape</title>
    <defs>
        <polygon id="path-1" points="0 0 96 0 96 44 0 44"></polygon>
        <polygon id="path-3" points="0 0 16 0 16 23 0 23"></polygon>
    </defs>
    <g id="logo-shape" stroke="none" stroke-width="1" fill="none" fill-rule="evenodd">
        <g id="Group-7" transform="translate(48.000000, 29.500000) scale(-1, 1) translate(-48.000000, -29.500000) ">
            <g id="Group-3" transform="translate(0.000000, 15.000000)">
                <mask id="mask-2" fill="white">
                    <use xlink:href="#path-1"></use>
                </mask>
                <g id="Clip-2"></g>
                <path d="M95.9800289,11.7387787 C96.0170128,15.343817 94.975571,18.2540671 92.9167048,20.8059251 C92.6682794,21.1138725 92.5618956,21.3062664 92.8697015,21.677563 C95.2564125,24.557605 96.3008012,27.893116 95.9253635,31.5898053 C95.4528248,36.2406918 93.3929272,39.988999 89.1187134,42.2348158 C86.3166339,43.7072446 83.2824843,44.1807505 80.1225012,43.9035978 C77.4166386,43.666185 74.8895068,42.8949965 72.5752899,41.4782916 C70.2889215,40.0784504 68.4731763,38.2474828 67.4472058,35.7312587 C67.3247613,35.4306433 67.1563448,35.335033 66.8351304,35.3278475 C64.7155577,35.2804823 62.5967217,35.2071615 60.4774436,35.1489447 C56.7375066,35.0461489 52.9962434,34.9822132 49.2580744,34.8346917 C47.1844737,34.7528656 45.1214818,34.9294222 43.0523015,34.9355811 C40.9825317,34.9417401 38.9127619,35.0238594 36.8434342,35.0858888 C34.3011257,35.1619958 31.7594066,35.2551133 29.2170981,35.3307804 C28.9227007,35.3394322 28.7136167,35.3731598 28.5782057,35.6938651 C27.1141755,39.1617934 24.4022717,41.3216783 20.9963681,42.6892583 C17.2150267,44.2077326 13.3389419,44.4218294 9.41821126,43.2533887 C4.9044128,41.9083915 1.9623545,38.9674932 0.647438481,34.4724868 C-0.722584959,29.7888992 0.0673371383,25.4887795 3.15320517,21.6573265 C3.41695457,21.3297291 3.37157199,21.1445206 3.12550411,20.847718 C1.70273079,19.1323039 0.713007467,17.1882756 0.307953215,14.9997957 C-0.240174038,12.0380743 -0.0738203639,9.10700101 1.07297383,6.29192128 C2.5144601,2.75389823 5.25568575,0.809429968 8.97514173,0.217730916 C11.9388599,-0.253721984 14.8470286,0.0231374487 17.6302479,1.2179736 C19.3434402,1.95338147 20.8507902,3.00172261 22.2373164,4.23527216 C22.4979715,4.46696596 22.5897681,4.7639153 22.7033719,5.06511725 C23.8833189,8.19210376 25.3368876,11.1786076 27.3176603,13.8905982 C28.4094945,15.3856098 29.6429281,16.7452712 31.1821048,17.8046105 C32.6561546,18.8190774 34.2664994,19.4421578 36.0804764,19.3774888 C37.6634149,19.3211784 39.0997441,18.7692192 40.4364673,17.9436267 C42.3493135,16.7624283 43.8971836,15.1861772 45.3078746,13.4657774 C45.7967687,12.8696791 46.2999554,12.2753405 46.7069252,11.6245448 C47.3013191,10.6743069 48.6266967,10.7042218 49.2403929,11.6705903 C50.3761362,13.4588852 51.7056394,15.1046444 53.2798845,16.5412927 C54.0739323,17.2659957 54.9275079,17.9076995 55.8752376,18.4228517 C58.653005,19.9329673 61.3715394,19.7888186 64.027157,18.1234094 C65.8950627,16.9520359 67.3470105,15.3527621 68.6346675,13.5965817 C70.5576806,10.9740425 72.0457283,8.11262399 73.2575021,5.10676348 C73.4409479,4.65173444 73.6968879,4.2907027 74.0649583,3.97366346 C76.2593828,2.08315933 78.7238926,0.739775185 81.6146745,0.257910728 C83.9067894,-0.124090766 86.1946313,-0.111186301 88.4393009,0.525385095 C92.2147483,1.59601577 94.4639856,4.15022 95.4705063,7.86040035 C95.61299,8.38581738 95.7040498,8.92648514 95.7951097,9.46407342 C95.9405402,10.3231002 95.991964,11.1906322 95.9800289,11.7387787" id="Fill-1" fill="#B37D2D" mask="url(#mask-2)"></path>
            </g>
            <g id="Group-6" transform="translate(40.000000, 0.000000)">
                <mask id="mask-4" fill="white">
                    <use xlink:href="#path-3"></use>
                </mask>
                <g id="Clip-5"></g>
                <path d="M8.04473001,11.0685274 C6.44375755,11.0685274 4.96239881,9.57816779 5.03905572,7.97916031 C5.13263501,6.02625038 6.66244671,5.00496005 8.07553741,5.0300215 C9.77182479,4.99844117 11.1040641,6.35610543 11.1004556,7.97293117 C11.0961092,9.88861108 9.608965,11.0685274 8.04473001,11.0685274 M15.9429958,7.05666714 C15.327137,2.2789116 11.1980773,-0.139156241 7.94681164,0.0061422284 C7.43436739,0.0210632078 6.92394804,0.0104881447 6.4143965,0.124496016 C4.44952065,0.56401302 2.82844383,1.55676517 1.62782296,3.17112822 C0.350834453,4.88776517 -0.247668034,6.80605263 0.0954078241,8.9685806 C0.258556883,9.99740385 0.610021611,10.9564027 1.08514985,11.8742602 C2.75135301,15.0931356 4.37561181,18.3331611 5.95040521,21.5976686 C6.38633718,22.5013294 7.08695246,22.9943012 8.08985634,23 C9.10462035,23.0058903 9.78542054,22.4726464 10.2213525,21.584486 C10.5234965,20.9689593 10.8315705,20.3561851 11.1344376,19.7408034 C12.4323983,17.1039911 13.7446779,14.4741323 15.0209433,11.8267449 C15.7445556,10.3255205 16.1583583,8.7275271 15.9429958,7.05666714" id="Fill-4" fill="#FFBD5A" mask="url(#mask-4)"></path>
            </g>
        </g>
    </g>
</svg>