<?xml version="1.0" encoding="UTF-8"?>
<svg width="96px" height="78px" viewBox="0 0 96 78" version="1.1" xmlns="http://www.w3.org/2000/svg" xmlns:xlink="http://www.w3.org/1999/xlink">
    <title>logo-letter</title>
    <g id="logo-letter" stroke="none" stroke-width="1" fill="none" fill-rule="evenodd">
        <g id="Group" transform="translate(0.000000, -0.000000)" fill="#FFBD5A">
            <path d="M78.7362156,31.0345897 C76.2712036,37.3656983 71.5018052,40.879006 64.808608,41.9599885 C61.9606905,42.4197615 59.0884357,42.099411 56.2289291,42.1964105 C55.6969871,42.2145262 55.4795747,41.9930096 55.377822,41.4743031 C54.7320746,38.1822826 53.4361759,35.1739226 51.2425818,32.5874988 C50.8640802,32.1412553 50.9055693,31.6606148 50.9053375,31.1630051 C50.9032515,25.6484809 50.9039468,20.1337274 50.9039468,14.6192032 C50.9039468,11.6289589 50.9000065,8.63871455 50.9062647,5.64847023 C50.9085825,4.62986093 50.9201717,4.6190832 51.94303,4.61449694 C53.8276574,4.60624166 55.7122848,4.61220381 57.5969123,4.61220381 C58.7748334,4.61266243 59.9536816,4.58629141 61.1311392,4.59661051 C61.5237795,4.60005021 61.9159564,4.60761754 62.3081332,4.62160565 C67.2344487,4.79748889 71.6227959,6.3281546 75.1296724,9.87287828 C77.7986534,12.5707483 79.2491514,15.8946433 79.8378801,19.5822291 C80.4604492,23.4823883 80.177674,27.3325572 78.7362156,31.0345897 M50.0832033,53.7267375 C48.3710224,58.4615968 44.8979862,61.5050418 40.1513025,63.1359174 C36.470357,64.4008091 32.6712021,64.6924955 28.7886053,64.3980573 C25.5454979,64.1520042 22.4287121,63.482639 19.4672209,62.1659225 C13.499968,59.5129979 9.50217515,55.0141019 7.08050655,49.0764949 C5.794111,45.9225209 5.15438997,42.6307297 4.87161473,39.2417097 C4.42635962,33.9081136 4.95181164,28.6965122 6.76203673,23.6562077 C10.2823567,13.8542143 17.1744237,7.71779268 27.4417144,5.35861832 C29.6216334,4.85756895 31.841419,4.59133631 34.0873961,4.61335037 C35.0886986,4.62298153 35.1090955,4.62733848 35.1100226,5.54459134 C35.1162808,11.9915031 35.1162808,18.4386441 35.1100226,24.8855558 C35.1090955,25.7885913 35.0886986,25.8149623 34.0901775,25.8188606 C31.0060731,25.8310142 27.9931262,26.2570782 25.0893489,27.3098552 C22.0425616,28.4146862 19.355038,30.0519826 17.464616,32.7276092 C15.0879133,36.0914047 14.4894496,39.7748629 15.8001824,43.6825894 C16.8809864,46.9048987 19.8343652,49.0212304 23.266144,49.1567545 C24.3233062,49.1987188 25.3737467,49.1996361 26.4283592,48.9877506 C30.4776079,48.1734594 32.8341455,45.3494672 33.195727,41.2548504 C33.413603,38.7899627 32.9310308,36.4647266 31.3377546,34.4541084 C30.6208498,33.5492384 29.7382202,32.8606108 28.7107263,32.342363 C28.3639789,32.1676263 28.0116688,32.0036674 27.5321098,31.772061 C28.5438425,31.0708212 29.5330923,30.818118 30.5320769,30.6589747 C34.7996652,29.9797489 38.9736132,30.2512558 42.9630619,32.0300384 C46.688278,33.6911833 49.1634884,36.5009581 50.330284,40.3435597 C51.6862144,44.8085173 51.6762477,49.3204841 50.0832033,53.7267375 M83.7116691,2.38098622 C80.1206554,0.652193895 76.2640183,0.0119513984 72.2970526,0.00782376048 C60.3210576,-0.00432983992 48.3450627,0.0080530737 36.3690678,1.34548593e-05 C33.6178038,-0.00180739456 30.8829964,0.180955238 28.180175,0.68750813 C22.3587136,1.77858041 17.0965446,4.10335778 12.6080671,7.95260941 C5.34862411,14.1777753 1.55850877,22.1876859 0.444327978,31.5367857 C0.363899283,32.2107372 0.390786109,32.9277996 0,33.5428177 L0,39.6033366 C0.391713241,40.176161 0.368303159,40.8592851 0.43598379,41.4931068 C0.766969889,44.5977785 1.47159016,47.6125593 2.62772367,50.5119956 C6.22777696,59.5412034 12.7281307,65.3987802 22.2321601,67.9363602 C25.9045297,68.9171329 29.6557055,69.10173 33.434927,68.9932648 C33.8825,68.9804233 34.348152,68.888698 34.8302606,69.1049404 C34.4654342,70.6679393 33.8655798,72.019282 32.7444455,73.1339736 C31.1680894,74.7013294 29.2542574,75.4438456 27.0530144,75.5619419 C26.1543918,75.610327 26.1546235,75.6247737 26.131677,76.4902018 C26.1275049,76.6454468 26.1291274,76.8009212 26.1312135,76.9561662 C26.1453522,77.9805084 26.145584,77.9965603 27.1700648,77.9970189 C37.7324153,78.0009173 48.2947658,78.0011466 58.8571163,77.9967896 C59.8730211,77.9965603 59.8730211,77.9798204 59.8866963,76.9467644 C59.9040801,75.6332583 59.9040801,75.6332583 58.603314,75.529838 C54.7564118,75.2241635 51.7425377,72.421956 51.1007306,68.6259051 C50.7604732,66.6143696 50.9987461,64.5959546 50.894212,62.5839605 C50.8596763,61.9187228 51.0661949,61.3864869 51.4766826,60.8817685 C52.39153,59.7572165 53.1072759,58.5088353 53.7198783,57.2024379 C55.1279599,54.1991228 55.7254965,51.016714 55.850891,47.7299677 C55.8854267,46.8292253 55.8956252,46.8280788 56.766202,46.8040009 C57.0016936,46.7973508 57.2374168,46.802625 57.4729084,46.802625 C62.4597192,46.802625 67.4462983,46.8005612 72.4331092,46.8035423 C74.5984258,46.8046888 76.7458951,46.5921155 78.8463125,46.0903782 C86.8979898,44.1675869 92.343731,39.3854891 94.7925182,31.5051404 C96.4476804,26.1784238 96.361689,20.7874994 94.7769887,15.4483998 C93.0163652,9.51560829 89.3546576,5.09720126 83.7116691,2.38098622" id="Fill-1"></path>
        </g>
    </g>
</svg>